<svg version="1.1" preserveAspectRatio="none" xmlns="http://www.w3.org/2000/svg" width="500" height="500" viewBox="0 0 500 500"><rect width="100%" height="100%" fill="#070707" fill-opacity="1"/><svg viewBox="64.618 -3.674 425.8324 325.1222" width="333" height="254.2448451550422" x="83.5px" y="122.8776px" xmlns="http://www.w3.org/2000/svg" xmlns:xlink="http://www.w3.org/1999/xlink" preserveAspectRatio="none"><defs></defs><style>.companyName {fill:#F7DC5F;fill-opacity:1;}.icon1 {fill:#F7DC5F;fill-opacity:1;}.icon2 {fill:#8C7848;fill-opacity:1;}.icon3 {fill:#534538;fill-opacity:1;}.icon3-str {stroke:#534538;stroke-opacity:1;}.text {fill:#F7DC5F;fill-opacity:1;}</style><g opacity="1" transform="rotate(0 140.7304 303.4482)">
<svg width="273.6076" height="18" x="140.7304" y="303.4482" version="1.1" preserveAspectRatio="none" viewBox="1.72 -28 550.8 36.239999999999995">
  <g transform="matrix(1 0 0 1 0 0)" class="text"><path id="id-6izo4zJp25" d="M19.96-18.88L19.96-18.88Q19.96-17.16 18.94-15.56Q17.92-13.96 16.36-12.56Q14.80-11.16 12.98-9.92Q11.16-8.68 9.56-7.50Q7.96-6.32 6.86-5.18Q5.76-4.04 5.64-2.88L5.64-2.88L19.88-2.88L19.88 0L2.08 0L2.08-1.64Q2.08-3.60 3.18-5.22Q4.28-6.84 5.94-8.26Q7.60-9.68 9.52-10.94Q11.44-12.20 13.10-13.48Q14.76-14.76 15.86-16.08Q16.96-17.40 16.96-18.92L16.96-18.92Q16.96-21.24 15.42-22.56Q13.88-23.88 11.12-23.88Q8.36-23.88 6.70-22.70Q5.04-21.52 4.72-19.28L4.72-19.28L1.72-19.28Q2.04-22.64 4.64-24.72L4.64-24.72Q7.24-26.80 10.92-26.80L10.92-26.80Q15.12-26.80 17.60-24.56L17.60-24.56Q19.96-22.40 19.96-18.88Z M31.40-26.48L40-26.48L40 0L37 0L37-23.60L31.40-23.60L31.40-26.48Z M69.40-14.64L66.36-14.64Q65.96-17.76 61.34-17.76Q56.72-17.76 56.72-14.88L56.72-14.88Q56.72-13.68 57.70-13.06Q58.68-12.44 60.16-12.04Q61.64-11.64 63.38-11.30Q65.12-10.96 66.60-10.34Q68.08-9.72 69.06-8.64Q70.04-7.56 70.04-5.68L70.04-5.68Q70.04-2.76 67.84-1.22Q65.64 0.32 61.88 0.32L61.88 0.32Q57.88 0.32 55.52-1.68L55.52-1.68Q53.36-3.44 53.20-6.28L53.20-6.28L56.32-6.28Q56.60-3.52 59.44-2.56L59.44-2.56Q60.48-2.24 61.50-2.24Q62.52-2.24 63.40-2.36Q64.28-2.48 65.12-2.80L65.12-2.80Q67.04-3.56 67.04-5.40L67.04-5.40Q67.04-6.64 66.06-7.30Q65.08-7.96 63.60-8.38Q62.12-8.80 60.38-9.14Q58.64-9.48 57.16-10.08Q55.68-10.68 54.70-11.72Q53.72-12.76 53.72-14.60L53.72-14.60Q53.72-17.32 55.70-18.82Q57.68-20.32 61.56-20.32L61.56-20.32Q65.24-20.32 67.36-18.56L67.36-18.56Q69.12-17.08 69.40-14.64L69.40-14.64Z M83.04 0L80.04 0L80.04-17.36L75.96-17.36L75.96-20L80.04-20L80.04-27.16L83.04-27.16L83.04-20L87.64-20L87.64-17.36L83.04-17.36L83.04 0Z M116.68-2.40L116.68-2.40Q118.60-2.40 120.08-3.48Q121.56-4.56 122.24-6.28L122.24-6.28L125.48-6.28Q124.56-3.32 122.12-1.52L122.12-1.52Q119.56 0.32 116.04 0.32L116.04 0.32Q111.64 0.32 108.88-2.68L108.88-2.68Q106.20-5.60 106.20-10L106.20-10Q106.20-14.40 108.88-17.32L108.88-17.32Q111.64-20.32 116.04-20.32L116.04-20.32Q119.56-20.32 122.12-18.48L122.12-18.48Q124.56-16.68 125.48-13.72L125.48-13.72L122.24-13.72Q121.56-15.44 120.08-16.52Q118.60-17.60 116.68-17.60Q114.76-17.60 113.42-17Q112.08-16.40 111.16-15.36L111.16-15.36Q109.20-13.20 109.20-10L109.20-10Q109.20-6.80 111.16-4.64L111.16-4.64Q113.16-2.40 116.68-2.40Z M142.12-2.40L142.12-2.40Q146.16-2.40 147.92-5.76L147.92-5.76L151.20-5.76Q150.16-3.04 147.90-1.36Q145.64 0.32 142.08 0.32L142.08 0.32Q137.56 0.32 134.72-2.68L134.72-2.68Q131.96-5.60 131.96-10L131.96-10Q131.96-14.44 134.60-17.32L134.60-17.32Q137.40-20.32 141.88-20.32L141.88-20.32Q146.36-20.32 149.16-17.32L149.16-17.32Q151.80-14.44 151.80-10L151.80-10L151.80-8.80L135.04-8.80Q135.36-6.04 137.24-4.24L137.24-4.24Q139.16-2.40 142.12-2.40ZM141.88-17.60L141.88-17.60Q139.12-17.60 137.24-15.88L137.24-15.88Q135.48-14.24 135.08-11.60L135.08-11.60L148.68-11.60Q148.28-14.24 146.52-15.88L146.52-15.88Q144.64-17.60 141.88-17.60Z M159.48-20L162.48-20L162.48-16.88Q163.56-18.32 165.12-19.32Q166.68-20.32 168.68-20.32Q170.68-20.32 172.12-19.76Q173.56-19.20 174.64-18.08L174.64-18.08Q177.12-15.64 177.12-11.64L177.12-11.64L177.12 0L174.12 0L174.12-11.56Q174.12-14.32 172.56-15.96Q171.00-17.60 168.52-17.60L168.52-17.60Q166.00-17.60 164.24-15.92L164.24-15.92Q162.48-14.20 162.48-11.52L162.48-11.52L162.48 0L159.48 0L159.48-20Z M190.80 0L187.80 0L187.80-17.36L183.72-17.36L183.72-20L187.80-20L187.80-27.16L190.80-27.16L190.80-20L195.40-20L195.40-17.36L190.80-17.36L190.80 0Z M220.12 0L217.12 0L217.12-3.12Q216.04-1.68 214.48-0.68Q212.92 0.32 210.92 0.32Q208.92 0.32 207.48-0.24Q206.04-0.80 204.96-1.92L204.96-1.92Q202.48-4.36 202.48-8.36L202.48-8.36L202.48-20L205.48-20L205.48-8.44Q205.48-5.68 207.04-4.04Q208.60-2.40 211.08-2.40L211.08-2.40Q213.60-2.40 215.36-4.08L215.36-4.08Q217.12-5.80 217.12-8.48L217.12-8.48L217.12-20L220.12-20L220.12 0Z M239.68-20.32L239.88-20.32L239.88-17.32L239.52-17.32Q236.28-17.32 234.24-14.72L234.24-14.72Q232.32-12.24 232.32-8.80L232.32-8.80L232.32 0L229.32 0L229.32-20L232.32-20L232.32-15.08Q233.28-18.20 236.48-19.68L236.48-19.68Q237.80-20.32 239.68-20.32L239.68-20.32Z M264.28-20L252.44 7.92L249.20 7.92L252.84-0.28L244.68-20L248.00-20L254.44-3.60L261.00-20L264.28-20Z M288.68 0L285.68 0L285.68-17.36L281.60-17.36L281.60-20L285.68-20L285.68-27.16L288.68-27.16L288.68-20L293.28-20L293.28-17.36L288.68-17.36L288.68 0Z M309.08-2.40L309.08-2.40Q313.12-2.40 314.88-5.76L314.88-5.76L318.16-5.76Q317.12-3.04 314.86-1.36Q312.60 0.32 309.04 0.32L309.04 0.32Q304.52 0.32 301.68-2.68L301.68-2.68Q298.92-5.60 298.92-10L298.92-10Q298.92-14.44 301.56-17.32L301.56-17.32Q304.36-20.32 308.84-20.32L308.84-20.32Q313.32-20.32 316.12-17.32L316.12-17.32Q318.76-14.44 318.76-10L318.76-10L318.76-8.80L302.00-8.80Q302.32-6.04 304.20-4.24L304.20-4.24Q306.12-2.40 309.08-2.40ZM308.84-17.60L308.84-17.60Q306.08-17.60 304.20-15.88L304.20-15.88Q302.44-14.24 302.04-11.60L302.04-11.60L315.64-11.60Q315.24-14.24 313.48-15.88L313.48-15.88Q311.60-17.60 308.84-17.60Z M335.68-2.40L335.68-2.40Q337.60-2.40 339.08-3.48Q340.56-4.56 341.24-6.28L341.24-6.28L344.48-6.28Q343.56-3.32 341.12-1.52L341.12-1.52Q338.56 0.32 335.04 0.32L335.04 0.32Q330.64 0.32 327.88-2.68L327.88-2.68Q325.20-5.60 325.20-10L325.20-10Q325.20-14.40 327.88-17.32L327.88-17.32Q330.64-20.32 335.04-20.32L335.04-20.32Q338.56-20.32 341.12-18.48L341.12-18.48Q343.56-16.68 344.48-13.72L344.48-13.72L341.24-13.72Q340.56-15.44 339.08-16.52Q337.60-17.60 335.68-17.60Q333.76-17.60 332.42-17Q331.08-16.40 330.16-15.36L330.16-15.36Q328.20-13.20 328.20-10L328.20-10Q328.20-6.80 330.16-4.64L330.16-4.64Q332.16-2.40 335.68-2.40Z M352.20-28L355.20-28L355.20-16.88Q356.28-18.32 357.84-19.32Q359.40-20.32 361.40-20.32Q363.40-20.32 364.84-19.76Q366.28-19.20 367.36-18.08L367.36-18.08Q369.84-15.64 369.84-11.64L369.84-11.64L369.84 0L366.84 0L366.84-11.56Q366.84-14.32 365.28-15.96Q363.72-17.60 361.24-17.60L361.24-17.60Q358.72-17.60 356.96-15.92L356.96-15.92Q355.20-14.20 355.20-11.52L355.20-11.52L355.20 0L352.20 0L352.20-28Z M378.84-20L381.84-20L381.84-16.88Q382.92-18.32 384.48-19.32Q386.04-20.32 388.04-20.32Q390.04-20.32 391.48-19.76Q392.92-19.20 394-18.08L394-18.08Q396.48-15.64 396.48-11.64L396.48-11.64L396.48 0L393.48 0L393.48-11.56Q393.48-14.32 391.92-15.96Q390.36-17.60 387.88-17.60L387.88-17.60Q385.36-17.60 383.60-15.92L383.60-15.92Q381.84-14.20 381.84-11.52L381.84-11.52L381.84 0L378.84 0L378.84-20Z M414.16-20.32L414.16-20.32Q418.64-20.32 421.44-17.32L421.44-17.32Q424.08-14.44 424.08-10L424.08-10Q424.08-5.56 421.44-2.68L421.44-2.68Q418.64 0.32 414.16 0.32L414.16 0.32Q409.68 0.32 406.88-2.68L406.88-2.68Q404.24-5.56 404.24-10L404.24-10Q404.24-14.44 406.88-17.32L406.88-17.32Q409.68-20.32 414.16-20.32ZM414.16-2.40L414.16-2.40Q417.40-2.40 419.28-4.64L419.28-4.64Q421.08-6.76 421.08-10L421.08-10Q421.08-13.24 419.28-15.36L419.28-15.36Q417.40-17.60 414.16-17.60L414.16-17.60Q410.92-17.60 409.04-15.36L409.04-15.36Q407.24-13.24 407.24-10L407.24-10Q407.24-6.76 409.04-4.64L409.04-4.64Q410.92-2.40 414.16-2.40Z M435.04-28L435.04 0L432.04 0L432.04-28L435.04-28Z M452.92-20.32L452.92-20.32Q457.40-20.32 460.20-17.32L460.20-17.32Q462.84-14.44 462.84-10L462.84-10Q462.84-5.56 460.20-2.68L460.20-2.68Q457.40 0.32 452.92 0.32L452.92 0.32Q448.44 0.32 445.64-2.68L445.64-2.68Q443-5.56 443-10L443-10Q443-14.44 445.64-17.32L445.64-17.32Q448.44-20.32 452.92-20.32ZM452.92-2.40L452.92-2.40Q456.16-2.40 458.04-4.64L458.04-4.64Q459.84-6.76 459.84-10L459.84-10Q459.84-13.24 458.04-15.36L458.04-15.36Q456.16-17.60 452.92-17.60L452.92-17.60Q449.68-17.60 447.80-15.36L447.80-15.36Q446-13.24 446-10L446-10Q446-6.76 447.80-4.64L447.80-4.64Q449.68-2.40 452.92-2.40Z M486.40-16.80L486.40-16.80L486.40-20L489.40-20L489.40-0.60Q489.40 3.72 486.94 5.98Q484.48 8.24 480.32 8.24Q476.16 8.24 473.82 6.64Q471.48 5.04 470.64 2.40L470.64 2.40L473.96 2.40Q475.24 5.52 479.80 5.52L479.80 5.52Q483.28 5.52 484.84 3.92Q486.40 2.32 486.40-0.80L486.40-0.80L486.40-3.56Q483.96 0 479.24 0L479.24 0Q474.92 0 472.20-2.96L472.20-2.96Q469.56-5.84 469.56-10.16L469.56-10.16Q469.56-14.48 472.20-17.36L472.20-17.36Q474.92-20.32 479.46-20.32Q484-20.32 486.40-16.80ZM479.64-2.72L479.64-2.72Q481.28-2.72 482.56-3.30Q483.84-3.88 484.76-4.88L484.76-4.88Q486.56-6.96 486.56-10.16L486.56-10.16Q486.56-13.36 484.76-15.44L484.76-15.44Q482.80-17.60 479.64-17.60L479.64-17.60Q476.40-17.60 474.44-15.44L474.44-15.44Q472.56-13.32 472.56-10.16L472.56-10.16Q472.56-7 474.44-4.88L474.44-4.88Q476.40-2.72 479.64-2.72Z M498.60 0L498.60-20L501.60-20L501.60 0L498.60 0ZM498.48-27.28L501.72-27.28L501.72-23.36L498.48-23.36L498.48-27.28Z M519.72-2.40L519.72-2.40Q523.76-2.40 525.52-5.76L525.52-5.76L528.80-5.76Q527.76-3.04 525.50-1.36Q523.24 0.32 519.68 0.32L519.68 0.32Q515.16 0.32 512.32-2.68L512.32-2.68Q509.56-5.60 509.56-10L509.56-10Q509.56-14.44 512.20-17.32L512.20-17.32Q515-20.32 519.48-20.32L519.48-20.32Q523.96-20.32 526.76-17.32L526.76-17.32Q529.40-14.44 529.40-10L529.40-10L529.40-8.80L512.64-8.80Q512.96-6.04 514.84-4.24L514.84-4.24Q516.76-2.40 519.72-2.40ZM519.48-17.60L519.48-17.60Q516.72-17.60 514.84-15.88L514.84-15.88Q513.08-14.24 512.68-11.60L512.68-11.60L526.28-11.60Q525.88-14.24 524.12-15.88L524.12-15.88Q522.24-17.60 519.48-17.60Z M551.88-14.64L548.84-14.64Q548.44-17.76 543.82-17.76Q539.20-17.76 539.20-14.88L539.20-14.88Q539.20-13.68 540.18-13.06Q541.16-12.44 542.64-12.04Q544.12-11.64 545.86-11.30Q547.60-10.96 549.08-10.34Q550.56-9.72 551.54-8.64Q552.52-7.56 552.52-5.68L552.52-5.68Q552.52-2.76 550.32-1.22Q548.12 0.32 544.36 0.32L544.36 0.32Q540.36 0.32 538-1.68L538-1.68Q535.84-3.44 535.68-6.28L535.68-6.28L538.80-6.28Q539.08-3.52 541.92-2.56L541.92-2.56Q542.96-2.24 543.98-2.24Q545-2.24 545.88-2.36Q546.76-2.48 547.60-2.80L547.60-2.80Q549.52-3.56 549.52-5.40L549.52-5.40Q549.52-6.64 548.54-7.30Q547.56-7.96 546.08-8.38Q544.60-8.80 542.86-9.14Q541.12-9.48 539.64-10.08Q538.16-10.68 537.18-11.72Q536.20-12.76 536.20-14.60L536.20-14.60Q536.20-17.32 538.18-18.82Q540.16-20.32 544.04-20.32L544.04-20.32Q547.72-20.32 549.84-18.56L549.84-18.56Q551.60-17.08 551.88-14.64L551.88-14.64Z"/></g>
</svg>
</g><g opacity="1" transform="rotate(0 64.618 261.4482)">
<svg width="425.8324" height="24" x="64.618" y="261.4482" version="1.1" preserveAspectRatio="none" viewBox="1.4 -31.2 560.68 31.6">
  <g transform="matrix(1 0 0 1 0 0)" class="companyName"><path id="id-D6z1nYkh17" d="M27.80-23.08L27.80-23.08Q27.80-19.76 25.88-17.52Q23.96-15.28 19.76-14.52L19.76-14.52L29.04-3.88Q30-2.76 31.32-2.18Q32.64-1.60 34-1.60L34-1.60L34 0L24.52 0L14.60-12.16Q13.60-13.36 12.86-13.78Q12.12-14.20 11.48-14.20L11.48-14.20L11.48-6.36Q11.48-4.88 11.68-3.94Q11.88-3 12.48-2.48Q13.08-1.96 14.22-1.78Q15.36-1.60 17.28-1.60L17.28-1.60L17.28 0L1.40 0L1.40-1.60Q2.72-1.60 3.54-1.78Q4.36-1.96 4.82-2.46Q5.28-2.96 5.44-3.86Q5.60-4.76 5.60-6.16L5.60-6.16L5.60-24.64Q5.60-26.04 5.48-26.90Q5.36-27.76 4.96-28.26Q4.56-28.76 3.82-28.94Q3.08-29.12 1.84-29.20L1.84-29.20L1.84-30.80L15.68-30.80Q21.48-30.80 24.64-28.76Q27.80-26.72 27.80-23.08ZM11.48-27.88L11.48-16.60L14.08-16.60Q17.84-16.60 19.70-18.06Q21.56-19.52 21.56-22.88L21.56-22.88Q21.56-25.44 20-27Q18.44-28.56 15.68-28.56L15.68-28.56L12.20-28.56Q11.48-28.56 11.48-27.88L11.48-27.88Z M66.80-24.36L66.80-6.44Q66.80-4.92 66.94-3.98Q67.08-3.04 67.54-2.54Q68-2.04 68.82-1.84Q69.64-1.64 71-1.60L71-1.60L71 0L56.32 0L56.32-1.60Q57.80-1.64 58.70-1.84Q59.60-2.04 60.10-2.52Q60.60-3 60.76-3.88Q60.92-4.76 60.92-6.16L60.92-6.16L60.92-14.52L46.08-14.52L46.08-6.44Q46.08-4.92 46.24-3.98Q46.40-3.04 46.88-2.54Q47.36-2.04 48.26-1.84Q49.16-1.64 50.64-1.60L50.64-1.60L50.64 0L36 0L36-1.60Q37.36-1.64 38.18-1.84Q39-2.04 39.44-2.52Q39.88-3 40.04-3.88Q40.20-4.76 40.20-6.16L40.20-6.16L40.20-24.64Q40.20-26.04 40.06-26.90Q39.92-27.76 39.52-28.26Q39.12-28.76 38.38-28.94Q37.64-29.12 36.44-29.20L36.44-29.20L36.44-30.80L50.24-30.80L50.24-29.20Q48.88-29.16 48.06-28.96Q47.24-28.76 46.80-28.24Q46.36-27.72 46.22-26.80Q46.08-25.88 46.08-24.36L46.08-24.36L46.08-17L60.92-17L60.92-24.64Q60.92-26.04 60.76-26.90Q60.60-27.76 60.16-28.26Q59.72-28.76 58.90-28.94Q58.08-29.12 56.72-29.20L56.72-29.20L56.72-30.80L70.56-30.80L70.56-29.20Q69.36-29.16 68.62-28.96Q67.88-28.76 67.48-28.24Q67.08-27.72 66.94-26.80Q66.80-25.88 66.80-24.36L66.80-24.36Z M85.88-27.20L85.88-17.04Q88.44-17.04 90-17.20Q91.56-17.36 92.42-17.86Q93.28-18.36 93.64-19.32Q94-20.28 94.20-21.92L94.20-21.92L95.68-21.92L95.68-10.20L94.20-10.20Q93.96-11.80 93.56-12.76Q93.16-13.72 92.28-14.22Q91.40-14.72 89.90-14.86Q88.40-15 85.88-15L85.88-15L85.88-6.76Q85.88-5.48 86.22-4.60Q86.56-3.72 87.36-3.18Q88.16-2.64 89.48-2.42Q90.80-2.20 92.72-2.20L92.72-2.20Q95-2.20 96.58-2.52Q98.16-2.84 99.20-3.64Q100.24-4.44 100.88-5.78Q101.52-7.12 101.96-9.16L101.96-9.16L103.56-9.16L102.92 0L75.80 0L75.80-1.60Q77.12-1.64 77.96-1.84Q78.80-2.04 79.24-2.52Q79.68-3 79.84-3.88Q80-4.76 80-6.16L80-6.16L80-24.64Q80-26.04 79.86-26.90Q79.72-27.76 79.32-28.26Q78.92-28.76 78.18-28.94Q77.44-29.12 76.24-29.20L76.24-29.20L76.24-30.80L101.52-30.80L101.80-22.96L100.08-22.96Q99.84-24.64 99.32-25.74Q98.80-26.84 97.88-27.50Q96.96-28.16 95.50-28.42Q94.04-28.68 91.92-28.68L91.92-28.68L87.40-28.68Q86.36-28.68 86.12-28.42Q85.88-28.16 85.88-27.20L85.88-27.20Z M139.16-24.36L139.16-6.44Q139.16-4.92 139.30-3.98Q139.44-3.04 139.90-2.54Q140.36-2.04 141.18-1.84Q142-1.64 143.36-1.60L143.36-1.60L143.36 0L128.68 0L128.68-1.60Q130.16-1.64 131.06-1.84Q131.96-2.04 132.46-2.52Q132.96-3 133.12-3.88Q133.28-4.76 133.28-6.16L133.28-6.16L133.28-14.52L118.44-14.52L118.44-6.44Q118.44-4.92 118.60-3.98Q118.76-3.04 119.24-2.54Q119.72-2.04 120.62-1.84Q121.52-1.64 123-1.60L123-1.60L123 0L108.36 0L108.36-1.60Q109.72-1.64 110.54-1.84Q111.36-2.04 111.80-2.52Q112.24-3 112.40-3.88Q112.56-4.76 112.56-6.16L112.56-6.16L112.56-24.64Q112.56-26.04 112.42-26.90Q112.28-27.76 111.88-28.26Q111.48-28.76 110.74-28.94Q110.00-29.12 108.80-29.20L108.80-29.20L108.80-30.80L122.60-30.80L122.60-29.20Q121.24-29.16 120.42-28.96Q119.60-28.76 119.16-28.24Q118.72-27.72 118.58-26.80Q118.44-25.88 118.44-24.36L118.44-24.36L118.44-17L133.28-17L133.28-24.64Q133.28-26.04 133.12-26.90Q132.96-27.76 132.52-28.26Q132.08-28.76 131.26-28.94Q130.44-29.12 129.08-29.20L129.08-29.20L129.08-30.80L142.92-30.80L142.92-29.20Q141.72-29.16 140.98-28.96Q140.24-28.76 139.84-28.24Q139.44-27.72 139.30-26.80Q139.16-25.88 139.16-24.36L139.16-24.36Z M177.04-20.88L177.04-12.40Q177.04-9 176.30-6.58Q175.56-4.16 174.00-2.60Q172.44-1.04 169.98-0.32Q167.52 0.40 164.08 0.40L164.08 0.40Q157.64 0.40 154.66-2.30Q151.68-5 151.68-10.92L151.68-10.92L151.68-21.88Q151.68-23.44 151.64-24.50Q151.60-25.56 151.52-26.28Q151.44-27 151.30-27.46Q151.16-27.92 150.96-28.24L150.96-28.24Q150.60-28.80 149.92-29Q149.24-29.20 147.84-29.20L147.84-29.20L147.84-30.80L162.20-30.80L162.20-29.20Q160.52-29.20 159.72-29.02Q158.92-28.84 158.48-28.32L158.48-28.32Q158.20-28 158.02-27.54Q157.84-27.08 157.74-26.34Q157.64-25.60 157.60-24.52Q157.56-23.44 157.56-21.88L157.56-21.88L157.56-11.40Q157.56-6.84 159.50-4.66Q161.44-2.48 165.48-2.48L165.48-2.48Q173.72-2.48 173.72-11.64L173.72-11.64L173.72-20.88Q173.72-22.56 173.66-23.76Q173.60-24.96 173.46-25.80Q173.32-26.64 173.10-27.20Q172.88-27.76 172.56-28.12L172.56-28.12Q172.00-28.68 171.12-28.94Q170.24-29.20 168.68-29.20L168.68-29.20L168.68-30.80L181.64-30.80L181.64-29.20Q180.16-29.20 179.36-28.98Q178.56-28.76 178.12-28.20L178.12-28.20Q177.80-27.84 177.60-27.26Q177.40-26.68 177.28-25.82Q177.16-24.96 177.10-23.76Q177.04-22.56 177.04-20.88L177.04-20.88Z M200.68 0L185.28 0L185.28-1.60Q186.64-1.64 187.46-1.84Q188.28-2.04 188.74-2.52Q189.20-3 189.36-3.88Q189.52-4.76 189.52-6.16L189.52-6.16L189.52-24.64Q189.52-26.04 189.40-26.90Q189.28-27.76 188.90-28.26Q188.52-28.76 187.86-28.94Q187.20-29.12 186.12-29.20L186.12-29.20L186.12-30.80L198.96-30.80Q205.00-30.80 208.26-28.86Q211.52-26.92 211.52-23.32L211.52-23.32Q211.52-18.56 204.68-16.60L204.68-16.60L204.68-16.44Q206.88-16.44 208.66-15.82Q210.44-15.20 211.68-14.08Q212.92-12.96 213.60-11.44Q214.28-9.92 214.28-8.12L214.28-8.12Q214.28-6.08 213.30-4.56Q212.32-3.04 210.48-2L210.48-2Q206.92 0 200.68 0L200.68 0ZM200.96-2.44L200.96-2.44Q207.40-2.44 207.40-8.24L207.40-8.24Q207.40-11.80 205.08-13.44L205.08-13.44Q203.88-14.28 201.98-14.64Q200.08-15 197.32-15L197.32-15L195.40-15L195.40-7Q195.40-4.52 196.68-3.48Q197.96-2.44 200.96-2.44ZM195.40-17.40L197.76-17.40Q199.56-17.40 200.88-17.74Q202.20-18.08 203.12-18.72L203.12-18.72Q205.04-20.04 205.04-22.84L205.04-22.84Q205.04-25.76 203.60-27.06Q202.16-28.36 198.96-28.36L198.96-28.36L196.12-28.36Q195.40-28.36 195.40-27.68L195.40-27.68L195.40-17.40Z M248.56 0L231.88 0L231.88-1.60Q233.20-1.64 234.02-1.82Q234.84-2 235.30-2.50Q235.76-3 235.92-3.86Q236.08-4.72 236.08-6.16L236.08-6.16L236.08-24.64Q236.08-26.04 235.96-26.90Q235.84-27.76 235.44-28.26Q235.04-28.76 234.34-28.94Q233.64-29.12 232.52-29.20L232.52-29.20L232.52-30.80L247.72-30.80Q251.56-30.80 254.80-29.60Q258.04-28.40 260.40-26.28Q262.76-24.16 264.08-21.24Q265.40-18.32 265.40-14.88L265.40-14.88Q265.40-11.60 264.16-8.86Q262.92-6.12 260.70-4.16Q258.48-2.20 255.38-1.10Q252.28 0 248.56 0L248.56 0ZM247.64-28.36L242.64-28.36Q241.96-28.36 241.96-27.68L241.96-27.68L241.96-7Q241.96-4.68 243.40-3.56Q244.84-2.44 247.84-2.44L247.84-2.44Q253.08-2.44 255.90-5.60Q258.72-8.76 258.72-14.80L258.72-14.80Q258.72-18 257.96-20.52Q257.20-23.04 255.76-24.78Q254.32-26.52 252.26-27.44Q250.20-28.36 247.64-28.36L247.64-28.36Z M280.24-27.20L280.24-17.04Q282.80-17.04 284.36-17.20Q285.92-17.36 286.78-17.86Q287.64-18.36 288-19.32Q288.36-20.28 288.56-21.92L288.56-21.92L290.04-21.92L290.04-10.20L288.56-10.20Q288.32-11.80 287.92-12.76Q287.52-13.72 286.64-14.22Q285.76-14.72 284.26-14.86Q282.76-15 280.24-15L280.24-15L280.24-6.76Q280.24-5.48 280.58-4.60Q280.92-3.72 281.72-3.18Q282.52-2.64 283.84-2.42Q285.16-2.20 287.08-2.20L287.08-2.20Q289.36-2.20 290.94-2.52Q292.52-2.84 293.56-3.64Q294.60-4.44 295.24-5.78Q295.88-7.12 296.32-9.16L296.32-9.16L297.92-9.16L297.28 0L270.16 0L270.16-1.60Q271.48-1.64 272.32-1.84Q273.16-2.04 273.60-2.52Q274.04-3 274.20-3.88Q274.36-4.76 274.36-6.16L274.36-6.16L274.36-24.64Q274.36-26.04 274.22-26.90Q274.08-27.76 273.68-28.26Q273.28-28.76 272.54-28.94Q271.80-29.12 270.60-29.20L270.60-29.20L270.60-30.80L295.88-30.80L296.16-22.96L294.44-22.96Q294.20-24.64 293.68-25.74Q293.16-26.84 292.24-27.50Q291.32-28.16 289.86-28.42Q288.40-28.68 286.28-28.68L286.28-28.68L281.76-28.68Q280.72-28.68 280.48-28.42Q280.24-28.16 280.24-27.20L280.24-27.20Z M312.44-24.40L318.84-6.88L324.04-20.20Q324.80-22.16 325.26-23.40Q325.72-24.64 325.96-25.44Q326.20-26.24 326.28-26.72Q326.36-27.20 326.36-27.64L326.36-27.64Q326.36-28.60 325.64-28.90Q324.92-29.20 322.76-29.20L322.76-29.20L322.76-30.80L334.12-30.80L334.12-29.20Q330.80-29.20 329.52-25.96L329.52-25.96L319 0.40L316.04 0.40L306.48-22.96Q305.68-24.84 305.04-26.04Q304.40-27.24 303.68-27.94Q302.96-28.64 302.10-28.90Q301.24-29.16 300.08-29.16L300.08-29.16L300.08-30.80L315.20-30.80L315.20-29.16Q314.16-29.12 313.46-29.04Q312.76-28.96 312.36-28.78Q311.96-28.60 311.80-28.30Q311.64-28 311.64-27.56L311.64-27.56Q311.64-27 311.84-26.24Q312.04-25.48 312.44-24.40L312.44-24.40Z M347-27.20L347-17.04Q349.56-17.04 351.12-17.20Q352.68-17.36 353.54-17.86Q354.40-18.36 354.76-19.32Q355.12-20.28 355.32-21.92L355.32-21.92L356.80-21.92L356.80-10.20L355.32-10.20Q355.08-11.80 354.68-12.76Q354.28-13.72 353.40-14.22Q352.52-14.72 351.02-14.86Q349.52-15 347-15L347-15L347-6.76Q347-5.48 347.34-4.60Q347.68-3.72 348.48-3.18Q349.28-2.64 350.60-2.42Q351.92-2.20 353.84-2.20L353.84-2.20Q356.12-2.20 357.70-2.52Q359.28-2.84 360.32-3.64Q361.36-4.44 362-5.78Q362.64-7.12 363.08-9.16L363.08-9.16L364.68-9.16L364.04 0L336.92 0L336.92-1.60Q338.24-1.64 339.08-1.84Q339.92-2.04 340.36-2.52Q340.80-3 340.96-3.88Q341.12-4.76 341.12-6.16L341.12-6.16L341.12-24.64Q341.12-26.04 340.98-26.90Q340.84-27.76 340.44-28.26Q340.04-28.76 339.30-28.94Q338.56-29.12 337.36-29.20L337.36-29.20L337.36-30.80L362.64-30.80L362.92-22.96L361.20-22.96Q360.96-24.64 360.44-25.74Q359.92-26.84 359-27.50Q358.08-28.16 356.62-28.42Q355.16-28.68 353.04-28.68L353.04-28.68L348.52-28.68Q347.48-28.68 347.24-28.42Q347-28.16 347-27.20L347-27.20Z M397.68-9.08L397.04 0L369.48 0L369.48-1.60Q370.80-1.64 371.64-1.84Q372.48-2.04 372.92-2.52Q373.36-3 373.52-3.88Q373.68-4.76 373.68-6.16L373.68-6.16L373.68-24.64Q373.68-26.04 373.54-26.90Q373.40-27.76 373-28.26Q372.60-28.76 371.86-28.94Q371.12-29.12 369.92-29.20L369.92-29.20L369.92-30.80L383.72-30.80L383.72-29.20Q382.36-29.16 381.54-28.96Q380.72-28.76 380.28-28.24Q379.84-27.72 379.70-26.80Q379.56-25.88 379.56-24.36L379.56-24.36L379.56-7.60Q379.56-5.92 379.90-4.86Q380.24-3.80 381.08-3.22Q381.92-2.64 383.32-2.42Q384.72-2.20 386.80-2.20L386.80-2.20Q389.12-2.20 390.68-2.48Q392.24-2.76 393.30-3.54Q394.36-4.32 395-5.64Q395.64-6.96 396.08-9.08L396.08-9.08L397.68-9.08Z M419.16-31.20L419.16-31.20Q422.76-31.20 425.88-29.96Q429-28.72 431.30-26.56Q433.60-24.40 434.92-21.48Q436.24-18.56 436.24-15.16L436.24-15.16Q436.24-11.92 434.90-9.08Q433.56-6.24 431.26-4.14Q428.96-2.04 425.84-0.82Q422.72 0.40 419.16 0.40L419.16 0.40Q415.60 0.40 412.48-0.82Q409.36-2.04 407.04-4.14Q404.72-6.24 403.40-9.08Q402.08-11.92 402.08-15.16L402.08-15.16Q402.08-18.56 403.40-21.48Q404.72-24.40 407.02-26.56Q409.32-28.72 412.44-29.96Q415.56-31.20 419.16-31.20ZM419.16-2.20L419.16-2.20Q421.48-2.20 423.36-3.10Q425.24-4 426.56-5.66Q427.88-7.32 428.58-9.70Q429.28-12.08 429.28-15.04L429.28-15.04Q429.28-18.16 428.58-20.66Q427.88-23.16 426.56-24.94Q425.24-26.72 423.36-27.66Q421.48-28.60 419.16-28.60L419.16-28.60Q416.80-28.60 414.94-27.66Q413.08-26.72 411.76-24.94Q410.44-23.16 409.74-20.66Q409.04-18.16 409.04-15.04L409.04-15.04Q409.04-12.08 409.74-9.70Q410.44-7.32 411.76-5.66Q413.08-4 414.94-3.10Q416.80-2.20 419.16-2.20Z M467.52-22.24L467.52-22.24Q467.52-17.92 464.16-15.66Q460.80-13.40 454.40-13.40L454.40-13.40L451-13.40L451-6.36Q451-4.84 451.20-3.90Q451.40-2.96 452.04-2.44Q452.68-1.92 453.80-1.76Q454.92-1.60 456.80-1.60L456.80-1.60L456.80 0L440.92 0L440.92-1.60Q442.24-1.64 443.08-1.84Q443.92-2.04 444.36-2.52Q444.80-3 444.96-3.88Q445.12-4.76 445.12-6.16L445.12-6.16L445.12-24.64Q445.12-26.04 444.98-26.90Q444.84-27.76 444.44-28.26Q444.04-28.76 443.30-28.94Q442.56-29.12 441.36-29.20L441.36-29.20L441.36-30.80L455.20-30.80Q461.28-30.80 464.40-28.64Q467.52-26.48 467.52-22.24ZM451-27.88L451-15.80L453.60-15.80Q457.48-15.80 459.28-17.36Q461.08-18.92 461.08-22.28L461.08-22.28Q461.08-25.28 459.56-26.92Q458.04-28.56 454.80-28.56L454.80-28.56L451.72-28.56Q451-28.56 451-27.88L451-27.88Z M481.68-27.20L481.68-17.04Q484.24-17.04 485.80-17.20Q487.36-17.36 488.22-17.86Q489.08-18.36 489.44-19.32Q489.80-20.28 490-21.92L490-21.92L491.48-21.92L491.48-10.20L490-10.20Q489.76-11.80 489.36-12.76Q488.96-13.72 488.08-14.22Q487.20-14.72 485.70-14.86Q484.20-15 481.68-15L481.68-15L481.68-6.76Q481.68-5.48 482.02-4.60Q482.36-3.72 483.16-3.18Q483.96-2.64 485.28-2.42Q486.60-2.20 488.52-2.20L488.52-2.20Q490.80-2.20 492.38-2.52Q493.96-2.84 495-3.64Q496.04-4.44 496.68-5.78Q497.32-7.12 497.76-9.16L497.76-9.16L499.36-9.16L498.72 0L471.60 0L471.60-1.60Q472.92-1.64 473.76-1.84Q474.60-2.04 475.04-2.52Q475.48-3 475.64-3.88Q475.80-4.76 475.80-6.16L475.80-6.16L475.80-24.64Q475.80-26.04 475.66-26.90Q475.52-27.76 475.12-28.26Q474.72-28.76 473.98-28.94Q473.24-29.12 472.04-29.20L472.04-29.20L472.04-30.80L497.32-30.80L497.60-22.96L495.88-22.96Q495.64-24.64 495.12-25.74Q494.60-26.84 493.68-27.50Q492.76-28.16 491.30-28.42Q489.84-28.68 487.72-28.68L487.72-28.68L483.20-28.68Q482.16-28.68 481.92-28.42Q481.68-28.16 481.68-27.20L481.68-27.20Z M530.56-23.08L530.56-23.08Q530.56-19.76 528.64-17.52Q526.72-15.28 522.52-14.52L522.52-14.52L531.80-3.88Q532.76-2.76 534.08-2.18Q535.40-1.60 536.76-1.60L536.76-1.60L536.76 0L527.28 0L517.36-12.16Q516.36-13.36 515.62-13.78Q514.88-14.20 514.24-14.20L514.24-14.20L514.24-6.36Q514.24-4.88 514.44-3.94Q514.64-3 515.24-2.48Q515.84-1.96 516.98-1.78Q518.12-1.60 520.04-1.60L520.04-1.60L520.04 0L504.16 0L504.16-1.60Q505.48-1.60 506.30-1.78Q507.12-1.96 507.58-2.46Q508.04-2.96 508.20-3.86Q508.36-4.76 508.36-6.16L508.36-6.16L508.36-24.64Q508.36-26.04 508.24-26.90Q508.12-27.76 507.72-28.26Q507.32-28.76 506.58-28.94Q505.84-29.12 504.60-29.20L504.60-29.20L504.60-30.80L518.44-30.80Q524.24-30.80 527.40-28.76Q530.56-26.72 530.56-23.08ZM514.24-27.88L514.24-16.60L516.84-16.60Q520.60-16.60 522.46-18.06Q524.32-19.52 524.32-22.88L524.32-22.88Q524.32-25.44 522.76-27Q521.20-28.56 518.44-28.56L518.44-28.56L514.96-28.56Q514.24-28.56 514.24-27.88L514.24-27.88Z M540.12 0L539.52-10.20L541.08-10.20Q541.64-6.40 544.12-4.22Q546.60-2.04 550.24-2.04L550.24-2.04Q551.72-2.04 552.96-2.40Q554.20-2.76 555.08-3.42Q555.96-4.08 556.44-4.98Q556.92-5.88 556.92-7L556.92-7Q556.92-7.96 556.62-8.66Q556.32-9.36 555.48-10.02Q554.64-10.68 553.18-11.36Q551.72-12.04 549.40-12.92L549.40-12.92Q544.72-14.72 542.48-17.10Q540.24-19.48 540.24-22.72L540.24-22.72Q540.24-24.60 540.96-26.16Q541.68-27.72 542.98-28.84Q544.28-29.96 546.10-30.58Q547.92-31.20 550.12-31.20L550.12-31.20Q552.16-31.20 553.96-30.56Q555.76-29.92 557.52-28.64L557.52-28.64L558.24-30.64L559.20-30.64L559.64-22L558.08-22Q557.12-25.28 555.08-27.02Q553.04-28.76 550.36-28.76L550.36-28.76Q547.88-28.76 546.34-27.54Q544.80-26.32 544.80-24.40L544.80-24.40Q544.80-23.56 545.08-22.90Q545.36-22.24 546.12-21.64Q546.88-21.04 548.20-20.42Q549.52-19.80 551.60-19.04L551.60-19.04Q554.40-17.96 556.38-16.86Q558.36-15.76 559.62-14.50Q560.88-13.24 561.48-11.84Q562.08-10.44 562.08-8.76L562.08-8.76Q562.08-6.72 561.20-5.04Q560.32-3.36 558.74-2.16Q557.16-0.96 554.98-0.28Q552.80 0.40 550.16 0.40L550.16 0.40Q547.76 0.40 545.84-0.26Q543.92-0.92 541.88-2.40L541.88-2.40L541.08 0L540.12 0Z"/></g>
</svg>
</g><g opacity="1" transform="rotate(0 171.0761 -3.674)">
<svg width="212.9162" height="235.1222" x="171.0761" y="-3.674" version="1.1" preserveAspectRatio="none" viewBox="18.5 10 163 180">
  <g transform="matrix(1 0 0 1 0 0)" ><g><path d="M181.5 46.814C181.5 26.187 145.636 10 100 10c-45.729 0-81.5 16.187-81.5 36.814v106.372C18.5 173.813 54.364 190 100 190s81.5-16.187 81.5-36.814V46.814zm-8.288 69.545c0 16.794-38.629 28.606-73.212 28.606s-73.212-11.719-73.212-28.606V95.781c13.06 12.273 40.561 20.578 73.212 20.578s60.151-8.305 73.212-20.578v20.578zm0-36.77c0 16.794-38.629 28.606-73.212 28.606s-73.212-11.72-73.212-28.606V63.071C39.849 75.344 67.349 83.649 100 83.649s60.151-8.305 73.212-20.578v16.518zM99.721 18.325c34.626 0 73.304 11.734 73.304 28.642 0 16.816-38.678 28.549-73.304 28.549-34.718 0-73.304-11.734-73.304-28.642s38.586-28.549 73.304-28.549zM100 181.644c-34.674 0-73.212-11.719-73.212-28.606V132.46c13.06 12.273 40.561 20.578 73.212 20.578s60.151-8.305 73.212-20.578v20.578c0 16.887-38.538 28.606-73.212 28.606z" data-color="1" class="icon1"></path></g></g>
</svg>
</g></svg></svg>